<svg width="24" height="24" viewBox="0 0 24 24" xmlns="http://www.w3.org/2000/svg">
    <path d="M3.176 2.795c.712-.611 1.237-.456 1.728.216l3.53 4.813c.351.483.256 1.147-.188 1.483L6.48 10.644l-.332.153c-.347.934-.041 2.462 3.087 5.588 3.046 3.042 4.682 2.223 4.854 2.124a.82.82 0 0 1 .141-.36l1.28-1.812c.324-.45.982-.57 1.475-.236l4.924 3.371c.69.47.861.991.274 1.721-.414.517-1.476 1.427-2.091 1.792-.308.185-.617.258-.915.226-.793.41-6.233 1.692-12.82-4.683C-.133 12.247 1.07 6.61 1.259 5.878c-.044-.3.014-.614.193-.933.348-.628 1.222-1.72 1.724-2.15zm17.005.663c2.035 1.9 2.952 4.744 2.723 8.46-.034.56-.5.99-1.056.99h-.066c-.584 0-1.027-.536-.992-1.119.188-3.055-.502-5.336-2.055-6.786-2.497-2.333-6.446-1.844-6.49-1.841a1.058 1.058 0 1 1-.274-2.1c.2-.025 4.988-.612 8.21 2.396zm-3.069 3.603c.874.931 1.2 2.208.972 3.795-.078.526-.53.907-1.048.907l-.152-.011a1.055 1.055 0 0 1-.895-1.199c.13-.914-.009-1.6-.415-2.04-.651-.7-1.946-.783-2.39-.745a1.07 1.07 0 0 1-1.131-.98 1.059 1.059 0 0 1 .972-1.132c.266-.013 2.626-.157 4.087 1.405z" fill="#FFF" fill-rule="evenodd"/>
</svg>
