<svg width="24" height="24" viewBox="0 0 24 24" xmlns="http://www.w3.org/2000/svg">
    <g transform="translate(1)" fill="none" fill-rule="evenodd">
        <rect fill="#3E3E3E" x="5" width="3" height="7" rx="1.5"/>
        <rect fill="#3E3E3E" x="14" width="3" height="7" rx="1.5"/>
        <rect fill="#3E3E3E" y="2" width="22" height="20" rx="3"/>
        <path d="M3 7h16v11a1 1 0 0 1-1 1H4a1 1 0 0 1-1-1V7z" fill="#FFF"/>
        <g transform="translate(5 9)" fill="#3E3E3E">
            <rect width="3" height="3" rx=".5"/>
            <rect y="5" width="3" height="3" rx=".5"/>
            <rect x="4.5" width="3" height="3" rx=".5"/>
            <rect x="4.5" y="5" width="3" height="3" rx=".5"/>
            <rect x="9" width="3" height="3" rx=".5"/>
            <rect x="9" y="5" width="3" height="3" rx=".5"/>
        </g>
    </g>
</svg>
