<svg width="24" height="24" viewBox="0 0 24 24" xmlns="http://www.w3.org/2000/svg">
    <path d="M13.14 3.62c4.608 0 8.357 3.76 8.357 8.383 0 4.622-3.749 8.382-8.358 8.382-1.699 0-3.335-.509-4.73-1.47a1.248 1.248 0 0 1-.32-1.733 1.242 1.242 0 0 1 1.73-.321 5.821 5.821 0 0 0 3.32 1.031c3.237 0 5.87-2.642 5.87-5.89 0-3.247-2.633-5.89-5.87-5.89l-.23.005c-2.6.102-4.787 1.914-5.44 4.363l-.02.084 1.004-1.007a1.242 1.242 0 0 1 1.76 0 1.248 1.248 0 0 1 0 1.762l-3.12 3.13a1.243 1.243 0 0 1-1.76 0l-3.12-3.13a1.249 1.249 0 0 1 .001-1.762l.101-.091a1.242 1.242 0 0 1 1.659.09l.943.946.008-.044c.728-3.91 4.156-6.838 8.214-6.838z" fill="#13875D" fill-rule="nonzero"/>
</svg>
