<svg width="24" height="24" viewBox="0 0 24 24" xmlns="http://www.w3.org/2000/svg">
    <path d="M12 7.617c2.3 0 4.167 1.867 4.167 4.167 0 .425-.084.833-.2 1.216l2.55 2.55a9.835 9.835 0 0 0 2.65-3.775c-1.442-3.65-5-6.241-9.167-6.241a9.875 9.875 0 0 0-3.033.475l1.808 1.808c.392-.117.8-.2 1.225-.2zM4.258 4.834a.83.83 0 0 0 0 1.175L5.9 7.65a9.91 9.91 0 0 0-3.067 4.134c1.442 3.658 5 6.25 9.167 6.25 1.267 0 2.475-.25 3.592-.684l2.266 2.267a.83.83 0 1 0 1.175-1.175L5.442 4.834a.84.84 0 0 0-1.184 0zM12 15.95a4.168 4.168 0 0 1-4.167-4.166c0-.642.15-1.25.409-1.784L9.55 11.31c-.025.15-.05.308-.05.475 0 1.383 1.117 2.5 2.5 2.5.167 0 .317-.025.475-.059l1.308 1.309A4.01 4.01 0 0 1 12 15.95zm2.475-4.441a2.474 2.474 0 0 0-2.2-2.2l2.2 2.2z" fill="#3E3E3E" fill-rule="nonzero"/>
</svg>
