<svg width="16" height="16" viewBox="0 0 16 16" xmlns="http://www.w3.org/2000/svg">
    <g fill="#1DA578" fill-rule="evenodd">
        <path d="M.968 3.03a.965.965 0 0 0-.129.622c-.126.488-.928 4.246 3.399 8.433 4.391 4.25 8.018 3.396 8.547 3.122a.97.97 0 0 0 .61-.15c.41-.243 1.118-.85 1.393-1.195.392-.487.278-.834-.182-1.147l-3.283-2.248a.719.719 0 0 0-.983.157l-.853 1.209a.547.547 0 0 0-.094.24c-.115.066-1.206.612-3.236-1.417-2.086-2.083-2.29-3.102-2.058-3.725l.22-.101 1.178-.892c.297-.224.36-.667.125-.989L3.27 1.741c-.327-.448-.677-.552-1.152-.144C1.782 1.883 1.2 2.61.968 3.03M11.357 7.576l-.101-.008a.703.703 0 0 1-.597-.8c.087-.609-.006-1.066-.277-1.36-.433-.466-1.297-.521-1.593-.496a.714.714 0 0 1-.754-.653.706.706 0 0 1 .649-.755c.177-.008 1.75-.104 2.724.936.583.622.8 1.472.648 2.53a.708.708 0 0 1-.699.606"/>
        <path d="M14.565 8.34h-.044c-.389 0-.684-.359-.66-.747.124-2.037-.336-3.558-1.371-4.525-1.665-1.554-4.297-1.229-4.327-1.227a.705.705 0 1 1-.182-1.4c.132-.016 3.325-.408 5.473 1.598 1.357 1.266 1.968 3.162 1.815 5.64a.704.704 0 0 1-.704.66"/>
    </g>
</svg>
