<svg width="44" height="44" viewBox="0 0 44 44" xmlns="http://www.w3.org/2000/svg">
    <g transform="translate(2.373 4.08)" fill-rule="nonzero" fill="none">
        <path d="M37.073 31.913c0 1.226-.977 2.22-2.181 2.22H31.62c-1.204 0-2.181-.994-2.181-2.22v-8.88c0-1.225.977-2.22 2.18-2.22h3.272c1.204 0 2.18.995 2.18 2.22v8.88zm-27.26 0c0 1.226-.977 2.22-2.18 2.22H4.36c-1.203 0-2.18-.994-2.18-2.22v-8.88c0-1.225.977-2.22 2.18-2.22h3.272c1.203 0 2.18.995 2.18 2.22v8.88z" fill="#292F33"/>
        <path d="M9.813.833c4.362-1.11 15.266-1.11 19.627 0 4.232 1.076 5.452 12.21 5.452 12.21s2.18 0 2.18 4.44v8.88s-.13 3.364-4.36 4.44c-4.362 1.11-7.633 1.11-13.085 1.11-5.452 0-8.723 0-13.085-1.11-4.23-1.076-4.361-4.44-4.361-4.44v-8.88s0-4.44 2.18-4.44c0 0 1.222-11.134 5.452-12.21z" fill="#606BBB"/>
        <path d="M19.627 11.933c4.258 0 9.402.222 13.084.623l-1.09-6.173c-1.09-3.33-7.633-3.33-11.994-3.33-4.362 0-10.904 0-11.994 3.33l-1.09 6.173c3.681-.401 8.826-.623 13.084-.623z" fill="#C1E0F6"/>
        <path d="M5.452 12.488c0 .92-.732 1.665-1.636 1.665h-2.18C.732 14.153 0 13.408 0 12.488s.732-1.665 1.636-1.665h2.18c.904 0 1.636.745 1.636 1.665zm28.35 0c0 .92.732 1.665 1.635 1.665h2.18c.904 0 1.636-.745 1.636-1.665s-.732-1.665-1.635-1.665h-2.181c-.903 0-1.636.745-1.636 1.665z" fill="#606BBB"/>
        <path d="M19.627 27.473c-6.175 0-13.782-.25-14.946-1.435a1.123 1.123 0 0 1 0-1.57 1.075 1.075 0 0 1 1.381-.135c.253.11 2.492.92 13.565.92 11.072 0 13.31-.81 13.564-.92a1.075 1.075 0 0 1 1.381.135 1.123 1.123 0 0 1 0 1.57c-1.164 1.185-8.77 1.435-14.945 1.435z" fill="#A0A8D7"/>
        <path d="M27.26 28.028c0 1.665-3.418 2.775-7.633 2.775-4.216 0-7.633-1.11-7.633-2.775 0-.919 3.417-.555 7.633-.555 4.215 0 7.632-.364 7.632.555zM2.181 17.473h5.12v5.12h-5.12zM31.953 17.473h5.12v5.12h-5.12z" fill="#3F49A5"/>
        <rect fill="#FACE34" x="5.12" y="17.473" width="6.827" height="5.12" rx="2.56"/>
        <rect fill="#FACE34" x="27.307" y="17.473" width="6.827" height="5.12" rx="2.56"/>
    </g>
</svg>
