<svg width="37" height="37" viewBox="0 0 37 37" xmlns="http://www.w3.org/2000/svg">
    <g transform="rotate(10 -17.756 46.499)" fill-rule="nonzero" fill="none">
        <ellipse fill="#FFD05B" cx="12.718" cy="12.6" rx="12.718" ry="12.6"/>
        <path d="M11.305 11.87a.707.707 0 0 1-.67-.478c-.144-.42-.72-1.621-1.45-1.621-.75 0-1.333 1.278-1.449 1.62a.707.707 0 0 1-1.34-.442c.088-.264.921-2.58 2.79-2.58 1.87 0 2.701 2.316 2.79 2.58a.698.698 0 0 1-.67.922zM18.371 11.87a.705.705 0 0 1-.67-.478c-.143-.42-.72-1.621-1.45-1.621-.75 0-1.334 1.278-1.45 1.62a.706.706 0 0 1-1.34-.442c.088-.264.921-2.58 2.79-2.58 1.868 0 2.7 2.316 2.79 2.58a.698.698 0 0 1-.67.922zM17.926 14.768a.293.293 0 0 0-.355-.016c-.021.016-2.187 1.523-4.853 1.523-2.658 0-4.831-1.507-4.853-1.523a.295.295 0 0 0-.354.016.252.252 0 0 0-.052.33c.072.112 1.794 2.752 5.26 2.752 3.464 0 5.188-2.64 5.259-2.753a.251.251 0 0 0-.052-.33z" fill="#664500"/>
        <path d="M24.819 2.288c0-1.184-.97-2.144-2.165-2.144-.725 0-1.365.355-1.758.898a2.166 2.166 0 0 0-1.759-.898c-1.196 0-2.164.96-2.164 2.144 0 .168.02.33.058.487.3 1.85 2.377 3.802 3.865 4.338 1.488-.536 3.564-2.487 3.864-4.337.037-.157.059-.32.059-.488zM8.626 19.886a2.334 2.334 0 0 0-2.345-2.324c-.787 0-1.48.385-1.906.973a2.346 2.346 0 0 0-1.906-.973 2.334 2.334 0 0 0-2.345 2.324c0 .182.024.357.063.527.326 2.004 2.575 4.12 4.187 4.7 1.613-.58 3.862-2.695 4.188-4.699a2.26 2.26 0 0 0 .064-.528zM26.46 18.289c0-.89-.727-1.61-1.624-1.61-.545 0-1.026.267-1.32.674a1.625 1.625 0 0 0-1.32-.673c-.898 0-1.625.72-1.625 1.609 0 .126.017.248.044.365.226 1.388 1.784 2.853 2.9 3.255 1.117-.402 2.676-1.867 2.9-3.255.029-.117.045-.24.045-.365z" fill="#EB5748"/>
    </g>
</svg>
