<svg width="32" height="32" viewBox="0 0 32 32" xmlns="http://www.w3.org/2000/svg">
    <g transform="translate(3.1 4.8)" fill-rule="nonzero" fill="none">
        <path d="M24.367 20.976c0 .805-.642 1.459-1.434 1.459h-2.15c-.79 0-1.433-.654-1.433-1.46V15.14c0-.806.642-1.46 1.433-1.46h2.15c.792 0 1.434.654 1.434 1.46v5.837zm-17.917 0c0 .805-.642 1.459-1.433 1.459h-2.15c-.792 0-1.434-.654-1.434-1.46V15.14c0-.806.642-1.46 1.434-1.46h2.15c.79 0 1.433.654 1.433 1.46v5.837z" fill="#1D1D1D"/>
        <path d="M6.45.547c2.867-.73 10.033-.73 12.9 0 2.781.708 3.583 8.026 3.583 8.026s1.434 0 1.434 2.918v5.837s-.086 2.21-2.867 2.918c-2.867.73-5.017.73-8.6.73-3.583 0-5.733 0-8.6-.73-2.78-.708-2.867-2.918-2.867-2.918V11.49s0-2.918 1.434-2.918c0 0 .802-7.318 3.583-8.026z" fill="#EE9132"/>
        <path d="M12.9 7.843c2.799 0 6.18.146 8.6.41l-.717-4.058c-.716-2.189-5.016-2.189-7.883-2.189s-7.167 0-7.883 2.19L4.3 8.251c2.42-.263 5.801-.409 8.6-.409z" fill="#F9F9F4"/>
        <path d="M3.583 8.208c0 .605-.48 1.094-1.075 1.094H1.075C.481 9.302 0 8.812 0 8.208c0-.605.48-1.095 1.075-1.095h1.433c.594 0 1.075.49 1.075 1.095zm18.634 0c0 .605.481 1.094 1.075 1.094h1.433c.593 0 1.075-.49 1.075-1.094 0-.605-.482-1.095-1.075-1.095h-1.433c-.594 0-1.075.49-1.075 1.095zM12.9 18.057c-4.058 0-9.058-.164-9.823-.943a.738.738 0 0 1 0-1.032.706.706 0 0 1 .908-.089c.166.073 1.637.605 8.915.605 7.278 0 8.75-.532 8.915-.605a.706.706 0 0 1 .908.09c.28.285.28.746 0 1.03-.765.78-5.765.944-9.823.944z" fill="#FDD199"/>
        <path d="M17.917 18.422c0 1.094-2.246 1.824-5.017 1.824-2.77 0-5.017-.73-5.017-1.824 0-.604 2.246-.365 5.017-.365 2.77 0 5.017-.239 5.017.365zM1.433 11.484h3.365v3.365H1.433zM21.001 11.484h3.365v3.365h-3.365z" fill="#B65729"/>
        <rect fill="#FFF6C3" x="3.365" y="11.484" width="4.487" height="3.365" rx="1.683"/>
        <rect fill="#FFF6C3" x="17.948" y="11.484" width="4.487" height="3.365" rx="1.683"/>
    </g>
</svg>
