<svg width="25" height="25" viewBox="0 0 25 25" xmlns="http://www.w3.org/2000/svg">
    <g fill-rule="nonzero" fill="none">
        <path d="M6.636 8.468H5.281a.336.336 0 0 1-.338-.333V3.468c0-.184.151-.333.338-.333h1.355c.187 0 .339.15.339.333v4.667a.336.336 0 0 1-.339.333z" fill="#BD3D2F"/>
        <path fill="#FFE8B6" d="M3.694 9.333 12.5.667l8.806 8.666v11.334H3.694z"/>
        <path fill="#FFCC4D" d="M12.5 9.333h.677V20H12.5z"/>
        <path d="M21.306 10a.681.681 0 0 1-.478-.195L12.5 1.609 4.172 9.805a.684.684 0 0 1-.957 0 .658.658 0 0 1 0-.943L12.02.195a.684.684 0 0 1 .958 0l8.806 8.667a.658.658 0 0 1 0 .943.681.681 0 0 1-.479.195z" fill="#66757F"/>
        <path d="M12.5 10a.681.681 0 0 1-.479-.195.658.658 0 0 1 0-.943l4.403-4.333a.684.684 0 0 1 .958 0 .658.658 0 0 1 0 .942L12.98 9.805A.681.681 0 0 1 12.5 10z" fill="#66757F"/>
        <path fill="#C1694F" d="M7.08 16h2.71v4H7.08z"/>
        <path d="M7.08 10h2.71v2.667H7.08V10zm8.468 0h2.71v2.667h-2.71V10zm0 6h2.71v2.667h-2.71V16z" fill="#55ACEE"/>
        <path d="M23 21c0 .552-.455 1-1.016 1H3.016C2.456 22 2 21.552 2 21s.455-1 1.016-1h18.968c.56 0 1.016.448 1.016 1z" fill="#19976C"/>
    </g>
</svg>
