<svg width="25" height="25" viewBox="0 0 25 25" xmlns="http://www.w3.org/2000/svg">
    <g fill="none" fill-rule="evenodd">
        <path d="M23 12.5C23 18.299 18.299 23 12.5 23S2 18.299 2 12.5 6.701 2 12.5 2 23 6.701 23 12.5" fill="#FFCC4D" fill-rule="nonzero"/>
        <path d="M2.723 8.427c.14.14.84.558.979.977.14.418.42 2.79 1.258 3.49.865.718 4.129.45 4.753.14 1.399-.698 1.57-2.644 1.818-3.63.139-.558.978-.558.978-.558s.839 0 .979.558c.247.986.42 2.932 1.817 3.629.625.312 3.888.58 4.754-.14.838-.698 1.117-3.07 1.258-3.489.138-.418.838-.837.978-.976.14-.14.14-.698 0-.838-.28-.279-3.578-.527-7.13-.14-.71.078-.979.28-2.657.28-1.677 0-1.948-.202-2.656-.28-3.55-.388-6.849-.14-7.129.14-.14.139-.14.698 0 .837z" fill="#292F33"/>
        <path d="M17.945 15.784a.292.292 0 0 0-.37-.017c-.023.017-2.288 1.691-5.075 1.691-2.78 0-5.053-1.674-5.075-1.691A.292.292 0 0 0 7 16.15c.075.125 1.876 3.058 5.5 3.058s5.426-2.933 5.5-3.058a.29.29 0 0 0-.055-.366z" fill="#664500" fill-rule="nonzero"/>
    </g>
</svg>
