<svg width="64" height="64" viewBox="0 0 64 64" xmlns="http://www.w3.org/2000/svg">
    <g fill="none" fill-rule="evenodd">
        <g fill="#FFF">
            <path d="M30.38 49.882h-2.439a.49.49 0 0 0-.108-.078c-1.544-.672-2.287-2.024-1.874-3.6 1.105-4.349 2.248-8.69 3.372-13.033a13.18 13.18 0 0 0 .334-1.829.417.417 0 0 0-.133-.43.463.463 0 0 0-.463-.077c-.259.056-.51.139-.749.248-.555.222-1.095.483-1.652.687v-.002a.97.97 0 0 1-1.256-.229v-.847a9.657 9.657 0 0 1 1.278-1.397 157.901 157.901 0 0 1 5.106-3.651c.37-.233.769-.423 1.184-.569a2.995 2.995 0 0 1 1.727-.171c2.17.419 3.294 2.077 2.765 4.119a5656.596 5656.596 0 0 1-3.228 12.557c-.17.682-.296 1.373-.375 2.07a.396.396 0 0 0 .148.423c.134.1.317.114.467.035.408-.117.794-.307 1.191-.46.48-.202.978-.385 1.46-.56a.725.725 0 0 1 .803.223c.206.23.238.56.079.823a3.02 3.02 0 0 1-.461.674c-.403.429-.837.83-1.3 1.198-1.852 1.424-3.747 2.822-5.875 3.876zM33.576 23.059a4.539 4.539 0 0 1-4.19-2.764 4.42 4.42 0 0 1 .99-4.872 4.59 4.59 0 0 1 4.947-.963 4.471 4.471 0 0 1 2.795 4.136 4.428 4.428 0 0 1-1.33 3.16 4.558 4.558 0 0 1-3.212 1.303z"/>
        </g>
        <circle cx="32" cy="32" r="32" fill="#F3AA49" fill-rule="nonzero"/>
        <g transform="translate(28 13)" fill="#FFF">
            <rect x="1" width="6" height="26" rx="3"/>
            <circle cx="4" cy="33" r="4"/>
        </g>
    </g>
</svg>
