<svg width="25" height="25" viewBox="0 0 25 25" xmlns="http://www.w3.org/2000/svg">
    <g fill="none" fill-rule="evenodd">
        <path d="M22 23v-4.094c0-1.938-2.106-3.216-4-3.216h-6.86c-1.893 0-4 1.278-4 3.216V23H22z" fill="#19976C"/>
        <path d="M14.538 2.864c2.347 0 6.257 1.201 6.257 6.403s0 6.402-1.173 6.402c-1.174 0-2.738-1.2-5.085-1.2-2.346 0-3.877 1.2-5.084 1.2-1.307 0-1.173-4.802-1.173-6.402.001-5.202 3.912-6.403 6.258-6.403" fill="#000"/>
        <path d="M12.471 15.702c0 .865 1.241 1.157 2.099 1.157.857 0 2.092-.292 2.092-1.157v-1.875H12.47v1.875z" fill="#FFD6AF"/>
        <path d="M12.467 14.625c.585.675 1.31.858 2.097.858.788 0 1.513-.182 2.098-.858v-1.717h-4.195v1.717z" fill="#FFBD7E"/>
        <path d="M9.845 9.091c0-3.411 2.101-6.177 4.693-6.177 2.591 0 4.693 2.766 4.693 6.177 0 3.412-2.102 6.016-4.693 6.016-2.592 0-4.693-2.604-4.693-6.016" fill="#FFD6AF"/>
        <path d="M14.538 13.668c-.918 0-1.398-.464-1.45-.517a.405.405 0 0 1 0-.566.384.384 0 0 1 .549-.004c.02.019.316.287.9.287.595 0 .89-.276.902-.288a.387.387 0 0 1 .55.012.403.403 0 0 1-.002.559c-.05.053-.53.517-1.45.517" fill="#DF1F32" fill-rule="nonzero"/>
        <path d="M8.697 11.011c-.012-.584-.025-.13-.025-.272 0-2 1.173.29 1.173-1.136s.782-1.569 1.564-2.369c.392-.4 1.173-1.185 1.173-1.185s1.956 1.209 3.52 1.209 3.129.804 3.129 2.405c0 1.6 1.173-.927 1.173 1.074 0 .143-.012-.31-.023.274h.41c.005-1.17.005-1.125.005-1.872C20.796 3.937 16.885 2 14.538 2c-2.346 0-6.256 1.905-6.256 7.107 0 .463-.012.735.004 1.904h.411z" fill="#000"/>
        <path d="M12.631 10.36a.49.49 0 0 1-.483-.495v-.494a.49.49 0 0 1 .483-.495c.266 0 .484.223.484.495v.494a.491.491 0 0 1-.484.495m3.867 0a.49.49 0 0 1-.484-.495v-.494a.49.49 0 0 1 .484-.495.49.49 0 0 1 .483.495v.494a.49.49 0 0 1-.483.495" fill="#662113" fill-rule="nonzero"/>
        <path d="M15.048 11.889h-.966a.245.245 0 0 1-.242-.248v-.09c0-.136.108-.247.242-.247h.966c.133 0 .242.11.242.248v.09c0 .135-.11.247-.242.247" fill="#C1694F" fill-rule="nonzero"/>
        <path d="M10.823 9.804c0 .847-.42 1.534-.937 1.534-.517 0-.937-.687-.937-1.534 0-.846.42-1.534.937-1.534.517 0 .937.687.937 1.534m9.367 0c0 .847-.42 1.534-.937 1.534-.517 0-.937-.687-.937-1.534 0-.846.42-1.534.937-1.534.518 0 .937.687.937 1.534" fill="#FFD6AF"/>
        <path d="M20.857 22.415a.578.578 0 0 1-.572.585H14.57a.578.578 0 0 1-.572-.585c0-.323.256-.585.572-.585h5.715c.316 0 .572.262.572.585z" fill="#E1E8ED" fill-rule="nonzero"/>
        <path d="M13.564 14.813h-9.42c-.871 0-1.988.45-1.416 2.065l1.756 4.956S4.71 23 5.996 23h11.432l-2.287-6.573c-.25-.773-.706-1.614-1.577-1.614z" fill="#E1E8ED" fill-rule="nonzero"/>
        <path d="M12.992 14.813h-9.42c-.87 0-1.987.45-1.416 2.065l1.756 4.956S4.139 23 5.425 23h11.431l-2.286-6.573c-.25-.773-.706-1.614-1.578-1.614z" fill="#99AAB5" fill-rule="nonzero"/>
        <path d="M10.008 19.072c.3.92.057 1.83-.542 2.034-.599.205-1.327-.374-1.627-1.294-.3-.92-.056-1.83.543-2.034.599-.204 1.327.374 1.626 1.294zm2.847-2.651H3.71a.434.434 0 0 1-.428-.439c0-.242.192-.438.428-.438h9.145c.237 0 .429.196.429.438a.434.434 0 0 1-.429.439z" fill="#E1E8ED" fill-rule="nonzero"/>
    </g>
</svg>
