<svg width="26" height="26" viewBox="0 0 26 26" xmlns="http://www.w3.org/2000/svg">
    <g fill="none" fill-rule="evenodd">
        <path d="M4.974 6.57c.575-.401 1.442-.324 1.959.102l-.593-.86c-.476-.68-.306-1.416.375-1.893.68-.475 2.608.803 2.608.803-.481-.687-.391-1.557.295-2.038a1.519 1.519 0 0 1 2.115.374l6.375 9.006-.812 7.877-6.781-2.473L4.6 8.698a1.527 1.527 0 0 1 .374-2.127z" fill="#EF9645" fill-rule="nonzero"/>
        <path d="M3.649 11.58s-.693-1.009.317-1.7c1.01-.693 1.701.316 1.701.316l3.213 4.686a6.28 6.28 0 0 1 .367-.547L4.788 7.833s-.692-1.009.318-1.701c1.009-.692 1.7.317 1.7.317l4.195 6.116c.156-.127.315-.255.48-.38L6.619 5.093s-.692-1.009.317-1.7c1.01-.693 1.701.316 1.701.316L13.5 10.8c.179-.109.356-.204.533-.304L9.488 3.868s-.692-1.01.316-1.701c1.01-.692 1.701.317 1.701.317l4.806 7.008.73 1.065c-3.027 2.077-3.315 5.983-1.586 8.506.346.505.85.159.85.159-2.075-3.028-1.441-6.43 1.587-8.506l-.893-4.468s-.334-1.177.843-1.511c1.177-.333 1.511.844 1.511.844l1.031 3.061c.409 1.214.844 2.424 1.42 3.568a7.344 7.344 0 0 1-2.411 9.348 7.344 7.344 0 0 1-10.208-1.903L3.65 11.581z" fill="#FFD54A"/>
        <g fill="#5DADEC" fill-rule="nonzero">
            <path d="M9.342 20.578c-2.447 0-4.92-2.473-4.92-4.92 0-.338-.248-.612-.587-.612-.338 0-.637.274-.637.612 0 3.671 2.473 6.144 6.144 6.144.338 0 .612-.3.612-.637 0-.339-.274-.587-.612-.587z"/>
            <path d="M6.283 21.776c-1.836 0-3.06-1.223-3.06-3.059a.611.611 0 1 0-1.223 0C2 21.165 3.835 23 6.283 23a.611.611 0 1 0 0-1.224zm10.4-19.578a.612.612 0 0 0 0 1.224c2.448 0 4.895 2.195 4.895 4.894a.612.612 0 0 0 1.224 0c0-3.373-2.447-6.118-6.118-6.118z"/>
            <path d="M19.743 1c-.338 0-.612.248-.612.586 0 .338.274.638.612.638 1.835 0 3.033 1.361 3.033 3.033 0 .338.3.612.638.612S24 5.595 24 5.257C24 2.91 22.19 1 19.743 1z"/>
        </g>
    </g>
</svg>
