<svg width="72" height="73" viewBox="0 0 72 73" xmlns="http://www.w3.org/2000/svg">
    <g transform="rotate(-12 84.016 -20.563)" fill-rule="nonzero" fill="none" opacity=".8">
        <path fill="#DCDCDC" d="M43.5 30.545h-30l-3-18.327h36z"/>
        <path d="M46.476 38.182h-33c-1.641 0-2.976-1.361-2.976-3.03 0-1.67 1.359-3.08 3-3.08h30c.734 0 1.36-.54 1.48-1.276l3-18.327a1.54 1.54 0 0 0-.337-1.239 1.484 1.484 0 0 0-1.143-.54H11.726l-1.56-9.416A1.49 1.49 0 0 0 8.753.03C8.729.026 8.712 0 8.688 0H1.5C.672 0 0 .684 0 1.527c0 .843.672 1.528 1.5 1.528h5.919l4.355 26.293A6.06 6.06 0 0 0 7.5 35.152c0 3.355 2.682 6.084 5.976 6.084h33c.83 0 1.5-.682 1.5-1.527 0-.844-.67-1.527-1.5-1.527zM43.23 22.909h-4.96l.41-3.054h5.048l-.498 3.054zm-7.989 0h-5.24v-3.054h5.65l-.41 3.054zm-8.24 0h-5.242l-.41-3.054H27v3.054zm-8.269 0h-4.96l-.5-3.054h5.05l.41 3.054zm-3.961 6.11-.5-3.055h4.87l.41 3.054h-4.78zm7.809 0-.41-3.055H27v3.054h-4.42zm7.42 0v-3.055h4.83l-.41 3.054H30zm7.45 0 .41-3.055h4.87l-.499 3.054h-4.78zm7.279-15.274-.5 3.055H39.09l.41-3.055h5.229zm-8.258 0-.41 3.055h-6.06v-3.055h6.47zm-9.47 0V16.8h-6.062l-.41-3.055H27zm-9.5 0 .41 3.055H12.77l-.5-3.055h5.23z" fill="#707070"/>
        <ellipse fill="#DCDCDC" cx="18" cy="44.291" rx="4.5" ry="4.582"/>
        <path d="M18 50.4c-3.309 0-6-2.74-6-6.11 0-3.368 2.691-6.108 6-6.108 3.31 0 6 2.74 6 6.109 0 3.37-2.69 6.109-6 6.109zm0-9.164c-1.654 0-3 1.37-3 3.055 0 1.684 1.346 3.054 3 3.054 1.655 0 3-1.37 3-3.054 0-1.685-1.345-3.055-3-3.055z" fill="#1D1D1D"/>
        <ellipse fill="#DCDCDC" cx="39" cy="44.291" rx="4.5" ry="4.582"/>
        <path d="M39 50.4c-3.309 0-6-2.74-6-6.11 0-3.368 2.691-6.108 6-6.108 3.31 0 6 2.74 6 6.109 0 3.37-2.69 6.109-6 6.109zm0-9.164c-1.654 0-3 1.37-3 3.055 0 1.684 1.346 3.054 3 3.054 1.655 0 3-1.37 3-3.054 0-1.685-1.345-3.055-3-3.055z" fill="#1D1D1D"/>
    </g>
</svg>
