<svg width="25" height="25" viewBox="0 0 25 25" xmlns="http://www.w3.org/2000/svg">
    <g fill-rule="nonzero" fill="none">
        <path d="M22.722 20.7c0 .717-.572 1.3-1.278 1.3h-1.916a1.29 1.29 0 0 1-1.278-1.3v-5.204c0-.718.572-1.3 1.278-1.3h1.916a1.29 1.29 0 0 1 1.278 1.3v5.203zm-15.972 0c0 .717-.572 1.3-1.278 1.3H3.556a1.29 1.29 0 0 1-1.278-1.3v-5.204c0-.718.572-1.3 1.278-1.3h1.916a1.29 1.29 0 0 1 1.278 1.3v5.203z" fill="#292F33"/>
        <path d="M6.75 2.488c2.556-.65 8.944-.65 11.5 0 2.48.63 3.194 7.154 3.194 7.154s1.278 0 1.278 2.602v5.203s-.076 1.97-2.555 2.602c-2.556.65-4.473.65-7.667.65s-5.111 0-7.667-.65c-2.479-.631-2.555-2.602-2.555-2.602v-5.203s0-2.602 1.278-2.602c0 0 .715-6.523 3.194-7.154z" fill="#606BBB"/>
        <path d="M12.5 8.992c2.495 0 5.51.13 7.667.365l-.64-3.617c-.638-1.951-4.471-1.951-7.027-1.951s-6.389 0-7.028 1.95l-.639 3.618c2.158-.235 5.172-.365 7.667-.365z" fill="#C1E0F6"/>
        <path d="M4.194 9.317c0 .54-.428.976-.958.976H1.958A.967.967 0 0 1 1 9.317c0-.54.429-.976.958-.976h1.278c.53 0 .958.437.958.976zm16.612 0c0 .54.429.976.958.976h1.278A.967.967 0 0 0 24 9.317c0-.54-.43-.976-.958-.976h-1.278a.967.967 0 0 0-.958.976z" fill="#606BBB"/>
        <path d="M8.028 14.195c0 1.078-.858 1.951-1.917 1.951h-.639c-1.058 0-1.916-.873-1.916-1.95 0-1.079.858-1.952 1.916-1.952h.64c1.058 0 1.916.873 1.916 1.951zm13.416 0c0 1.078-.858 1.951-1.916 1.951h-.64c-1.057 0-1.916-.873-1.916-1.95 0-1.079.859-1.952 1.917-1.952h.639c1.058 0 1.916.873 1.916 1.951z" fill="#FACE34"/>
        <path d="M8.667 13.545a.635.635 0 0 1-.532-.29c-1.113-1.7-4.037-2.318-4.066-2.324a.65.65 0 0 1-.5-.766.638.638 0 0 1 .75-.51c.142.029 3.47.728 4.88 2.879.195.3.116.702-.178.902a.638.638 0 0 1-.354.109zm7.666 0a.633.633 0 0 1-.354-.11.657.657 0 0 1-.177-.902c1.408-2.15 4.737-2.85 4.878-2.878a.64.64 0 0 1 .752.509.65.65 0 0 1-.5.766c-.03.006-2.954.624-4.066 2.325a.636.636 0 0 1-.533.29z" fill="#3F49A5"/>
        <path d="M12.5 18.098c-3.618 0-8.075-.147-8.757-.841a.658.658 0 0 1 0-.92.63.63 0 0 1 .81-.08c.147.066 1.46.54 7.947.54 6.488 0 7.8-.474 7.948-.54a.63.63 0 0 1 .81.08c.25.254.25.665 0 .92-.683.694-5.14.84-8.758.84z" fill="#A0A8D7"/>
        <path d="M16.972 18.423c0 .975-2.002 1.626-4.472 1.626-2.47 0-4.472-.65-4.472-1.626 0-.539 2.002-.325 4.472-.325 2.47 0 4.472-.214 4.472.325z" fill="#3F49A5"/>
    </g>
</svg>
