<svg width="40" height="40" viewBox="0 0 40 40" xmlns="http://www.w3.org/2000/svg">
    <g fill="#3E3E3E" fill-rule="nonzero">
        <path d="M20 2c9.941 0 18 8.059 18 18s-8.059 18-18 18S2 29.941 2 20 10.059 2 20 2zm-.011 7.2c-6.627 0-12.015 4.376-12.015 9.754 0 4.815 4.275 8.854 10.046 9.619.394.09.922.258 1.058.596.123.303.078.776.033 1.091 0 0-.146.844-.169 1.024-.056.303-.236 1.192 1.047.652 1.251-.527 6.646-3.902 9.249-6.761l.19-.214c1.743-1.923 2.576-3.858 2.576-6.007 0-5.378-5.389-9.754-12.015-9.754z"/>
        <path d="M28.01 22.059a.226.226 0 0 0 .225-.225v-.855a.226.226 0 0 0-.225-.225h-2.295v-.889h2.295a.226.226 0 0 0 .225-.225v-.855a.226.226 0 0 0-.225-.225h-2.295v-.889h2.295a.226.226 0 0 0 .225-.225v-.855a.226.226 0 0 0-.225-.225h-3.375a.226.226 0 0 0-.225.225v5.232c0 .123.101.224.225.224h3.375v.012zM15.523 22.059a.226.226 0 0 0 .225-.225v-.855a.226.226 0 0 0-.225-.225h-2.296V16.59a.226.226 0 0 0-.225-.225h-.854a.226.226 0 0 0-.226.225v5.243c0 .123.102.225.226.225h3.375zM17.547 16.355h-.854a.226.226 0 0 0-.226.225v5.243c0 .123.102.224.226.224h.854a.226.226 0 0 0 .226-.224V16.58c.01-.124-.09-.225-.226-.225zM23.352 16.355h-.855a.226.226 0 0 0-.224.225v3.116l-2.397-3.24c0-.011-.011-.011-.022-.022l-.011-.012-.012-.01h-.011l-.011-.012h-.012s-.01 0-.01-.011h-.012s-.011 0-.011-.012H18.83a.226.226 0 0 0-.225.226v5.242c0 .124.101.225.225.225h.855a.226.226 0 0 0 .225-.225v-3.116l2.407 3.24a.136.136 0 0 0 .057.056l.011.011H22.441c.023 0 .034.011.056.011h.844a.226.226 0 0 0 .225-.224V16.58a.21.21 0 0 0-.213-.225z"/>
    </g>
</svg>
