<svg width="147" height="40" viewBox="0 0 147 40" xmlns="http://www.w3.org/2000/svg">
    <g fill="none" fill-rule="evenodd">
        <path d="M6.044 17.31c0 3.1 2.514 5.614 5.614 5.614h.042c3.101 0 5.614-2.514 5.614-5.614h2.818a9.474 9.474 0 0 1-9.474 9.474h-.07a9.474 9.474 0 0 1-9.474-9.474z" fill="#1DA578"/>
        <path d="M18.714 8.889h.018a2.456 2.456 0 1 1 0 4.912h-.018a2.456 2.456 0 0 1 0-4.912zm-11.446 0h.018a2.456 2.456 0 1 1 0 4.912h-.018a2.456 2.456 0 0 1 0-4.912zM27.176 26.784V8.889h3.522l-.001 5.18a5.459 5.459 0 0 1 8.806 4.313v8.402H35.98v-7.885a2.641 2.641 0 0 0-5.278-.167l-.005.167v7.885h-3.522zm21.043-2.895a3.87 3.87 0 0 0 2.75-1.14h3.841a7.134 7.134 0 0 1-6.59 4.386c-3.94 0-7.133-3.182-7.133-7.106s3.193-7.105 7.132-7.105c3.94 0 7.132 3.181 7.132 7.105 0 .512-.054 1.011-.157 1.492H44.645a3.875 3.875 0 0 0 3.574 2.368zm0-7.72c-1.609 0-2.99.978-3.574 2.37h7.149a3.875 3.875 0 0 0-3.575-2.37zm44.024-3.245c3.94 0 7.132 3.181 7.132 7.105 0 3.924-3.193 7.106-7.132 7.106-3.939 0-7.132-3.182-7.132-7.106s3.193-7.105 7.132-7.105zm0 3.246a3.867 3.867 0 0 0-3.874 3.86 3.867 3.867 0 0 0 3.874 3.859 3.867 3.867 0 0 0 3.874-3.86 3.867 3.867 0 0 0-3.874-3.86zm15.32-3.246c3.94 0 7.133 3.181 7.133 7.105 0 3.924-3.194 7.106-7.132 7.106-3.94 0-7.132-3.182-7.132-7.106s3.193-7.105 7.132-7.105zm0 3.246a3.867 3.867 0 0 0-3.873 3.86 3.867 3.867 0 0 0 3.874 3.859 3.867 3.867 0 0 0 3.874-3.86 3.867 3.867 0 0 0-3.874-3.86zm22.277-7.281v17.895h-3.522v-.96a6.4 6.4 0 0 1-3.874 1.31c-3.696 0-6.692-3.18-6.692-7.105 0-3.924 2.996-7.105 6.692-7.105a6.4 6.4 0 0 1 3.874 1.311V8.89h3.522zm-6.868 7.28c-2.09 0-3.786 1.729-3.786 3.86 0 2.132 1.695 3.86 3.786 3.86s3.786-1.728 3.786-3.86c0-2.131-1.695-3.86-3.786-3.86zm-46.841-3.245c1.522 0 2.926.533 4.05 1.431v-1.08h3.522v10.702l-.002-.001.002.097c0 3.571-1.758 7.985-6.838 8.145l-.286.004c-3.426 0-5.713-1.38-6.86-4.142l-.104-.263h3.675c.932.875 1.991 1.312 3.179 1.312 2.077.005 3.344-1.216 3.8-3.663l.002-.011-.216.171a6.456 6.456 0 0 1-3.924 1.333c-3.696 0-6.692-3.142-6.692-7.017 0-3.876 2.996-7.018 6.692-7.018zm.352 3.158a3.867 3.867 0 0 0-3.874 3.86 3.867 3.867 0 0 0 3.874 3.86 3.867 3.867 0 0 0 3.874-3.86 3.867 3.867 0 0 0-3.874-3.86zm-17.258-2.807 2.998 7.74 3.307-7.74h3.698L61.585 31.17h-3.698l2.398-5.614-4.758-12.281h3.698zm75.545 0 2.998 7.74 3.307-7.74h3.698L137.13 31.17h-3.698l2.398-5.614-4.758-12.281h3.698z" fill="#2A2D2D"/>
    </g>
</svg>
